<svg width="604" height="91" viewBox="0 0 604 91" fill="none" xmlns="http://www.w3.org/2000/svg">
<path d="M0 5.15625C1.8125 5.46875 3.40625 5.6875 4.78125 5.8125C6.21875 5.9375 7.40625 6.03125 8.34375 6.09375C9.46875 6.15625 10.4375 6.1875 11.25 6.1875C12.0625 6.1875 13.2188 6.125 14.7188 6C15.9688 5.875 17.5938 5.71875 19.5938 5.53125C21.6562 5.34375 24.1875 5.03125 27.1875 4.59375C26.3125 4.84375 25.5 5.5625 24.75 6.75C24.0625 7.875 23.4375 9.09375 22.875 10.4062C22.1875 11.9687 21.5938 13.6875 21.0938 15.5625C20.6562 17.25 20.0938 19.5625 19.4062 22.5C18.7812 25.4375 18.1562 28.625 17.5312 32.0625C16.9688 35.5 16.5312 39 16.2188 42.5625C15.9062 46.0625 15.8438 49.2812 16.0312 52.2188C16.2812 55.1562 16.875 57.5938 17.8125 59.5312C18.75 61.4062 20.1875 62.4062 22.125 62.5312C25.0625 62.7812 27.5 62.8125 29.4375 62.625C31.4375 62.375 33.0625 62.0312 34.3125 61.5938C35.5625 61.1562 36.5312 60.6562 37.2188 60.0938C37.9062 59.4688 38.4375 58.875 38.8125 58.3125C39.8125 56.875 40.8438 55.0312 41.9062 52.7812C42.9688 50.5312 43.9062 48.375 44.7188 46.3125C45.5938 44.25 46.3125 42.5 46.875 41.0625C47.4375 39.625 47.7188 38.9375 47.7188 39C47.7188 39.125 47.6875 39.8438 47.625 41.1562C47.625 42.4062 47.5938 43.9375 47.5312 45.75C47.5312 47.5 47.5 49.3438 47.4375 51.2812C47.4375 53.2188 47.4062 54.875 47.3438 56.25C47.2812 57.375 47.2188 58.625 47.1562 60C47.0938 61.1875 47.0312 62.5938 46.9688 64.2188C46.9688 65.8438 46.9062 67.625 46.7812 69.5625C44.1562 69.375 41.6562 69.25 39.2812 69.1875C36.9062 69.125 34.8125 69.0938 33 69.0938C30.875 69.0938 28.9062 69.125 27.0938 69.1875C25.1562 69.25 22.9062 69.3438 20.3438 69.4688C18.1562 69.5938 15.4375 69.75 12.1875 69.9375C8.9375 70.0625 5.1875 70.25 0.9375 70.5C1.4375 69.625 1.84375 68.8125 2.15625 68.0625C2.53125 67.3125 2.8125 66.6875 3 66.1875C3.25 65.5625 3.40625 65.0312 3.46875 64.5938C3.84375 62.5938 4.15625 60.0625 4.40625 57C4.65625 53.875 4.84375 50.5625 4.96875 47.0625C5.15625 43.5625 5.25 40 5.25 36.375C5.3125 32.6875 5.3125 29.2812 5.25 26.1562C5.1875 23.0312 5.0625 20.3125 4.875 18C4.75 15.6875 4.5625 14.0938 4.3125 13.2188C4 12.2188 3.625 11.2187 3.1875 10.2188C2.8125 9.34375 2.34375 8.46875 1.78125 7.59375C1.28125 6.65625 0.6875 5.84375 0 5.15625ZM60 35.1562C60.3125 34.7812 60.5 34.0938 60.5625 33.0938C60.6875 32.0312 60.9375 30.8438 61.3125 29.5312C61.75 28.2188 62.4688 26.8438 63.4688 25.4062C64.4688 23.9688 66.0938 22.625 68.3438 21.375C70.5312 20.125 72.6562 19.375 74.7188 19.125C76.7812 18.875 78.75 18.9688 80.625 19.4062C82.5 19.8438 84.25 20.5312 85.875 21.4688C87.5625 22.4062 89.0938 23.4375 90.4688 24.5625C91.4062 25.3125 92.1562 26.4062 92.7188 27.8438C93.2812 29.2188 93.7188 30.7812 94.0312 32.5312C94.3438 34.2812 94.5625 36.125 94.6875 38.0625C94.875 39.9375 95 41.7812 95.0625 43.5938C95.125 45.3438 95.1562 46.9688 95.1562 48.4688C95.2188 49.9062 95.3438 51.0938 95.5312 52.0312C95.7812 53.4062 96.2188 54.5938 96.8438 55.5938C97.4688 56.5312 98.1562 57.3438 98.9062 58.0312C99.6562 58.6562 100.406 59.1562 101.156 59.5312C101.906 59.9062 102.562 60.1875 103.125 60.375C103.5 60.5625 103.844 60.6875 104.156 60.75C104.781 61 105.219 61 105.469 60.75C105.094 61.625 104.75 62.375 104.438 63C104.125 63.625 103.875 64.1562 103.688 64.5938C103.438 65.0938 103.219 65.5 103.031 65.8125C102.844 66.1875 102.625 66.5312 102.375 66.8438C102.188 67.1562 101.938 67.5 101.625 67.875C101.312 68.25 101 68.6562 100.688 69.0938C99.875 68.7812 99.0938 68.4062 98.3438 67.9688C97.6562 67.5312 97.0312 67.125 96.4688 66.75C95.7812 66.3125 95.1562 65.875 94.5938 65.4375C94.0312 65 93.5 64.5 93 63.9375C92.5625 63.4375 92.0938 62.9062 91.5938 62.3438C91.1562 61.7812 90.7812 61.1562 90.4688 60.4688C90.0938 61.2812 89.1875 62.4375 87.75 63.9375C86.375 65.4375 84.5625 66.8125 82.3125 68.0625C80.0625 69.25 77.4375 70.0938 74.4375 70.5938C71.5 71.0938 68.25 70.75 64.6875 69.5625C63.125 69.0625 61.6562 68.3438 60.2812 67.4062C58.9062 66.4062 57.7188 65.2188 56.7188 63.8438C55.7812 62.4688 55.0938 60.9062 54.6562 59.1562C54.2812 57.3438 54.3125 55.3438 54.75 53.1562C55.1875 50.9688 55.9688 49.125 57.0938 47.625C58.2188 46.125 59.5625 44.9062 61.125 43.9688C62.6875 43.0312 64.4375 42.3125 66.375 41.8125C68.3125 41.3125 70.3125 40.9688 72.375 40.7812C74 40.7188 75.625 40.8125 77.25 41.0625C78.625 41.3125 80.0625 41.7812 81.5625 42.4688C83.0625 43.0938 84.3438 44.0625 85.4062 45.375C85.3438 42.0625 85.2188 39.4375 85.0312 37.5C84.9062 35.5 84.7812 33.9688 84.6562 32.9062C84.4062 31.6562 84.1875 30.7812 84 30.2812C83.6875 29.8438 83.3438 29.3438 82.9688 28.7812C82.6562 28.2188 82.25 27.7188 81.75 27.2812C81.25 26.7812 80.625 26.375 79.875 26.0625C79.125 25.75 78.25 25.625 77.25 25.6875C76.1875 25.75 75.3438 26.0312 74.7188 26.5312C74.0938 27.0312 73.5938 27.625 73.2188 28.3125C72.9062 28.9375 72.7188 29.625 72.6562 30.375C72.5938 31.125 72.625 31.7812 72.75 32.3438C72.875 32.7188 73.0625 33.125 73.3125 33.5625C73.5625 33.9375 73.9062 34.3438 74.3438 34.7812C74.7812 35.2188 75.375 35.5938 76.125 35.9062C74.6875 36.0938 73.4062 36.25 72.2812 36.375C71.1562 36.4375 70.1875 36.5312 69.375 36.6562C68.4375 36.7812 67.625 36.875 66.9375 36.9375C66.25 37 65.4375 37.125 64.5 37.3125C63.6875 37.4375 62.6875 37.5938 61.5 37.7812C60.3125 37.9688 58.9375 38.2188 57.375 38.5312C57.75 38.0938 58.0938 37.6875 58.4062 37.3125C58.7188 36.875 59 36.5 59.25 36.1875C59.5 35.8125 59.75 35.4688 60 35.1562ZM74.0625 46.3125C72.9375 46.375 71.8125 46.6562 70.6875 47.1562C69.5625 47.5938 68.5625 48.25 67.6875 49.125C66.8125 49.9375 66.0625 50.9062 65.4375 52.0312C64.875 53.0938 64.5938 54.2812 64.5938 55.5938C64.5938 56.9062 64.9062 58.0625 65.5312 59.0625C66.2188 60 67.0938 60.7812 68.1562 61.4062C69.2812 62.0312 70.4688 62.4062 71.7188 62.5312C73.0312 62.6562 74.3125 62.5312 75.5625 62.1562C76.75 61.7188 77.875 61.0312 78.9375 60.0938C80 59.0938 80.9062 58.0312 81.6562 56.9062C82.4062 55.7188 82.9375 54.5625 83.25 53.4375C83.5625 52.25 83.5938 51.2812 83.3438 50.5312C82.8438 48.9062 81.7188 47.7812 79.9688 47.1562C78.2188 46.4688 76.25 46.1875 74.0625 46.3125ZM107.438 62.8125C107.875 60.75 108.188 58.9375 108.375 57.375C108.625 55.75 108.812 54.4062 108.938 53.3438C109.062 52.0938 109.125 51.0312 109.125 50.1562C109.062 49.0938 109 47.8438 108.938 46.4062C108.938 44.9062 108.875 43.4375 108.75 42C108.688 40.5 108.594 39.1875 108.469 38.0625C108.344 36.875 108.188 36.0312 108 35.5312C107.75 35.0312 107.406 34.5 106.969 33.9375C106.094 32.875 104.812 31.8438 103.125 30.8438C104.562 30.5312 105.781 30.2812 106.781 30.0938C107.844 29.8438 108.719 29.625 109.406 29.4375C110.156 29.1875 110.812 28.9688 111.375 28.7812C111.875 28.5938 112.469 28.4062 113.156 28.2188C113.719 28.0938 114.406 27.9375 115.219 27.75C116.031 27.5625 116.969 27.3438 118.031 27.0938L117.75 35.625C119.75 33.25 121.781 31.4688 123.844 30.2812C125.906 29.0938 127.844 28.25 129.656 27.75C131.719 27.125 133.75 26.8125 135.75 26.8125C138.25 26.9375 140.562 27.3438 142.688 28.0312C144.875 28.7188 146.75 29.5312 148.312 30.4688C149.938 31.3438 151.25 32.2812 152.25 33.2812C153.25 34.2812 153.844 35.1562 154.031 35.9062C154.781 38.3438 154.969 40.5938 154.594 42.6562C154.219 44.6562 153.719 46.625 153.094 48.5625C152.531 50.4375 152.031 52.3125 151.594 54.1875C151.219 56.0625 151.375 58.0938 152.062 60.2812C152.312 60.8438 152.562 61.4062 152.812 61.9688C153.062 62.4688 153.375 62.9688 153.75 63.4688C154.125 63.9688 154.562 64.375 155.062 64.6875C154.375 64.625 153.688 64.5938 153 64.5938C152.312 64.5312 151.688 64.4688 151.125 64.4062C150.438 64.3438 149.812 64.2812 149.25 64.2188C148.625 64.1562 147.781 64.125 146.719 64.125C144.906 64.125 142.094 64.2188 138.281 64.4062C138.844 63.0938 139.281 62 139.594 61.125C139.969 60.1875 140.281 59.4375 140.531 58.875C140.781 58.1875 140.969 57.6562 141.094 57.2812C141.844 55.4688 142.281 53.4062 142.406 51.0938C142.594 48.7812 142.438 46.4375 141.938 44.0625C141.75 43.25 141.438 42.2812 141 41.1562C140.562 40.0312 139.969 38.9375 139.219 37.875C138.531 36.8125 137.688 35.9062 136.688 35.1562C135.75 34.4062 134.656 33.9688 133.406 33.8438C132.156 33.7188 130.75 34.0312 129.188 34.7812C127.688 35.5312 126.062 36.9062 124.312 38.9062C123 40.5938 121.969 42.6562 121.219 45.0938C120.531 47.1562 120.062 49.75 119.812 52.875C119.562 55.9375 119.938 59.5312 120.938 63.6562C120.062 63.5312 119.25 63.4688 118.5 63.4688C117.75 63.4062 117.125 63.3438 116.625 63.2812C116 63.2188 115.438 63.1562 114.938 63.0938C114.375 63.0938 113.75 63.0625 113.062 63C112.438 63 111.656 63 110.719 63C109.781 62.9375 108.688 62.875 107.438 62.8125ZM205.875 1.3125C207.062 1.375 208.344 1.40625 209.719 1.40625C210.906 1.40625 212.25 1.4375 213.75 1.5C215.312 1.5 216.938 1.4375 218.625 1.3125C217.125 2 215.812 3 214.688 4.3125C213.562 5.625 212.656 6.9375 211.969 8.25C211.094 9.8125 210.375 11.4375 209.812 13.125C209.5 14.125 209.25 15.9062 209.062 18.4688C208.875 20.9688 208.719 23.9062 208.594 27.2812C208.531 30.6562 208.5 34.2188 208.5 37.9688C208.5 41.7188 208.531 45.3125 208.594 48.75C208.656 52.125 208.75 55.125 208.875 57.75C209 60.375 209.156 62.2188 209.344 63.2812C209.594 64.5312 209.906 65.7188 210.281 66.8438C210.594 67.8438 211 68.875 211.5 69.9375C212 70.9375 212.625 71.75 213.375 72.375L203.812 76.6875C203.312 76 202.906 75.2812 202.594 74.5312C202.281 73.8438 202.031 73.2188 201.844 72.6562C201.594 71.9688 201.438 71.3438 201.375 70.7812C201.25 70.0312 201.125 69.2188 201 68.3438C200.875 67.4062 200.719 66.5312 200.531 65.7188C200.406 64.8438 200.312 64.125 200.25 63.5625C200.188 63 200.188 62.6562 200.25 62.5312C200.312 62.4062 199.938 62.9688 199.125 64.2188C198.312 65.4062 197.094 66.8125 195.469 68.4375C193.906 70 191.969 71.5312 189.656 73.0312C187.344 74.4688 184.75 75.375 181.875 75.75C178.938 76.125 176.219 75.5625 173.719 74.0625C171.281 72.5625 169.188 70.4688 167.438 67.7812C165.688 65.0312 164.344 61.875 163.406 58.3125C162.531 54.6875 162.188 51 162.375 47.25C162.5 44.75 163.062 42.5312 164.062 40.5938C165.062 38.5938 166.312 36.875 167.812 35.4375C169.375 33.9375 171.062 32.6875 172.875 31.6875C174.75 30.625 176.562 29.75 178.312 29.0625C180.125 28.375 181.812 27.875 183.375 27.5625C184.938 27.25 186.188 27.0312 187.125 26.9062C188.25 26.8438 189.531 27.0312 190.969 27.4688C192.219 27.8438 193.656 28.4688 195.281 29.3438C196.969 30.2188 198.844 31.5312 200.906 33.2812C200.531 27.0312 200.188 22.0312 199.875 18.2812C199.562 14.4688 199.25 11.5625 198.938 9.5625C198.625 7.1875 198.344 5.5625 198.094 4.6875C197.781 4.0625 197.375 3.4375 196.875 2.8125C196.438 2.3125 195.875 1.8125 195.188 1.3125C194.562 0.75 193.812 0.3125 192.938 0C194.562 0.3125 196.125 0.53125 197.625 0.65625C199.125 0.78125 200.5 0.90625 201.75 1.03125C203.188 1.15625 204.562 1.25 205.875 1.3125ZM182.344 36.2812C181.156 36.7188 180.188 37.4688 179.438 38.5312C178.75 39.5938 178.188 40.875 177.75 42.375C177.312 43.8125 177 45.375 176.812 47.0625C176.688 48.6875 176.594 50.2812 176.531 51.8438C176.531 53.3438 176.531 54.7188 176.531 55.9688C176.531 57.2188 176.531 58.1562 176.531 58.7812C176.531 59.1562 176.594 59.8438 176.719 60.8438C176.906 61.7812 177.281 62.7812 177.844 63.8438C178.406 64.8438 179.188 65.75 180.188 66.5625C181.25 67.375 182.656 67.7812 184.406 67.7812C185.844 67.6562 187.375 67.1562 189 66.2812C190.438 65.5312 192.062 64.3438 193.875 62.7188C195.75 61.0312 197.75 58.625 199.875 55.5C199.75 53.5 199.656 51.8438 199.594 50.5312C199.594 49.2188 199.562 48.1562 199.5 47.3438C199.438 46.4062 199.406 45.6562 199.406 45.0938V43.6875C199.406 43.3125 199.406 42.9062 199.406 42.4688C199.406 42.0312 199.438 41.625 199.5 41.25C197.75 40 196.188 38.9375 194.812 38.0625C193.5 37.125 192.188 36.4375 190.875 36C189.625 35.5 188.312 35.2812 186.938 35.3438C185.625 35.3438 184.094 35.6562 182.344 36.2812ZM216.656 31.2188L233.906 31.4062C232.906 35.2188 232.156 38.4688 231.656 41.1562C231.219 43.8438 230.938 46.0938 230.812 47.9062C230.562 49.9688 230.5 51.7188 230.625 53.1562C230.812 54.4688 231.125 55.875 231.562 57.375C231.938 58.625 232.5 60.0625 233.25 61.6875C234 63.3125 235 64.9375 236.25 66.5625C235.5 66.3125 234.688 66.125 233.812 66C232.938 65.875 232.125 65.7812 231.375 65.7188C230.5 65.6562 229.625 65.6562 228.75 65.7188C227.875 65.7812 226.906 65.875 225.844 66C224.969 66.125 223.906 66.2812 222.656 66.4688C221.406 66.6562 220.094 66.9062 218.719 67.2188C219.656 64.4062 220.375 61.9688 220.875 59.9062C221.438 57.8438 221.844 56.125 222.094 54.75C222.344 53.125 222.5 51.8125 222.562 50.8125C222.562 49.5625 222.562 48.1562 222.562 46.5938C222.562 44.9688 222.562 43.4062 222.562 41.9062C222.562 40.4062 222.531 39.0938 222.469 37.9688C222.406 36.7812 222.281 36.0312 222.094 35.7188L221.156 34.7812C220.781 34.4688 220.219 34.0312 219.469 33.4688C218.781 32.8438 217.844 32.0938 216.656 31.2188ZM223.312 16.7812C224.625 16.0938 225.938 15.9062 227.25 16.2188C228.625 16.5312 229.688 17.125 230.438 18C231.188 18.875 231.438 19.9062 231.188 21.0938C231 22.2812 230 23.4375 228.188 24.5625C226.375 25.625 224.781 26 223.406 25.6875C222.031 25.375 221.062 24.7188 220.5 23.7188C219.938 22.7188 219.844 21.5625 220.219 20.25C220.594 18.875 221.625 17.7188 223.312 16.7812ZM242.531 62.8125C242.969 60.75 243.281 58.9375 243.469 57.375C243.719 55.75 243.906 54.4062 244.031 53.3438C244.156 52.0938 244.219 51.0312 244.219 50.1562C244.156 49.0938 244.094 47.8438 244.031 46.4062C244.031 44.9062 243.969 43.4375 243.844 42C243.781 40.5 243.688 39.1875 243.562 38.0625C243.438 36.875 243.281 36.0312 243.094 35.5312C242.844 35.0312 242.5 34.5 242.062 33.9375C241.188 32.875 239.906 31.8438 238.219 30.8438C239.656 30.5312 240.875 30.2812 241.875 30.0938C242.938 29.8438 243.812 29.625 244.5 29.4375C245.25 29.1875 245.906 28.9688 246.469 28.7812C246.969 28.5938 247.562 28.4062 248.25 28.2188C248.812 28.0938 249.5 27.9375 250.312 27.75C251.125 27.5625 252.062 27.3438 253.125 27.0938L252.844 35.625C254.844 33.25 256.875 31.4688 258.938 30.2812C261 29.0938 262.938 28.25 264.75 27.75C266.812 27.125 268.844 26.8125 270.844 26.8125C273.344 26.9375 275.656 27.3438 277.781 28.0312C279.969 28.7188 281.844 29.5312 283.406 30.4688C285.031 31.3438 286.344 32.2812 287.344 33.2812C288.344 34.2812 288.938 35.1562 289.125 35.9062C289.875 38.3438 290.062 40.5938 289.688 42.6562C289.312 44.6562 288.812 46.625 288.188 48.5625C287.625 50.4375 287.125 52.3125 286.688 54.1875C286.312 56.0625 286.469 58.0938 287.156 60.2812C287.406 60.8438 287.656 61.4062 287.906 61.9688C288.156 62.4688 288.469 62.9688 288.844 63.4688C289.219 63.9688 289.656 64.375 290.156 64.6875C289.469 64.625 288.781 64.5938 288.094 64.5938C287.406 64.5312 286.781 64.4688 286.219 64.4062C285.531 64.3438 284.906 64.2812 284.344 64.2188C283.719 64.1562 282.875 64.125 281.812 64.125C280 64.125 277.188 64.2188 273.375 64.4062C273.938 63.0938 274.375 62 274.688 61.125C275.062 60.1875 275.375 59.4375 275.625 58.875C275.875 58.1875 276.062 57.6562 276.188 57.2812C276.938 55.4688 277.375 53.4062 277.5 51.0938C277.688 48.7812 277.531 46.4375 277.031 44.0625C276.844 43.25 276.531 42.2812 276.094 41.1562C275.656 40.0312 275.062 38.9375 274.312 37.875C273.625 36.8125 272.781 35.9062 271.781 35.1562C270.844 34.4062 269.75 33.9688 268.5 33.8438C267.25 33.7188 265.844 34.0312 264.281 34.7812C262.781 35.5312 261.156 36.9062 259.406 38.9062C258.094 40.5938 257.062 42.6562 256.312 45.0938C255.625 47.1562 255.156 49.75 254.906 52.875C254.656 55.9375 255.031 59.5312 256.031 63.6562C255.156 63.5312 254.344 63.4688 253.594 63.4688C252.844 63.4062 252.219 63.3438 251.719 63.2812C251.094 63.2188 250.531 63.1562 250.031 63.0938C249.469 63.0938 248.844 63.0625 248.156 63C247.531 63 246.75 63 245.812 63C244.875 62.9375 243.781 62.875 242.531 62.8125ZM340.125 33.375C339.938 32.125 339.781 31.0938 339.656 30.2812C339.531 29.4062 339.406 28.7188 339.281 28.2188C339.156 27.5938 339.062 27.125 339 26.8125C338.875 26.5 338.719 26.1562 338.531 25.7812C338.406 25.4688 338.188 25.0938 337.875 24.6562C337.625 24.2188 337.312 23.7188 336.938 23.1562C337.75 23.4062 338.562 23.5625 339.375 23.625C340.25 23.6875 341.062 23.75 341.812 23.8125C342.625 23.875 343.469 23.875 344.344 23.8125C345.219 23.8125 346.219 23.7812 347.344 23.7188C348.344 23.6562 349.531 23.625 350.906 23.625C352.344 23.5625 353.969 23.4688 355.781 23.3438C354.719 23.5938 353.812 24.0312 353.062 24.6562C352.375 25.2188 351.781 25.8438 351.281 26.5312C350.719 27.2812 350.25 28.0938 349.875 28.9688C349.562 29.7812 349.375 31.3438 349.312 33.6562C349.25 35.9062 349.25 38.5938 349.312 41.7188C349.375 44.7812 349.438 48.0938 349.5 51.6562C349.625 55.2188 349.688 58.625 349.688 61.875C349.75 65.125 349.75 68.0938 349.688 70.7812C349.625 73.4062 349.469 75.3438 349.219 76.5938C348.344 80.5312 346.719 83.7188 344.344 86.1562C341.969 88.6562 338.844 90 334.969 90.1875C330.281 90.375 326.562 89.9375 323.812 88.875C321.125 87.8125 319.031 86.5 317.531 84.9375C316.031 83.4375 314.906 81.9062 314.156 80.3438C313.406 78.7812 312.625 77.5938 311.812 76.7812C311.062 76.0938 310.312 75.4375 309.562 74.8125C308.875 74.3125 308.156 73.8125 307.406 73.3125C306.719 72.8125 306.031 72.5 305.344 72.375C307.156 72.4375 308.781 72.4688 310.219 72.4688C311.656 72.4688 312.875 72.4688 313.875 72.4688C315 72.4688 316 72.4375 316.875 72.375H319.875H328.406C327.156 72.75 326.219 73.1562 325.594 73.5938C324.969 74.0938 324.531 74.5938 324.281 75.0938C324.031 75.6562 323.906 76.2188 323.906 76.7812C324.156 78.2812 324.969 79.375 326.344 80.0625C327.719 80.75 329.594 81.1562 331.969 81.2812C334.281 81.4062 335.875 81.3438 336.75 81.0938C337.625 80.9062 338.312 80.5312 338.812 79.9688C339.812 78.4688 340.656 76.5312 341.344 74.1562C341.844 72.1562 342.188 69.5625 342.375 66.375C342.625 63.125 342.344 59.1562 341.531 54.4688C339.531 57.2188 337.219 59.2812 334.594 60.6562C331.969 62.0312 329.469 63.0312 327.094 63.6562C324.281 64.3438 321.438 64.6875 318.562 64.6875C311 64.375 305.344 62.625 301.594 59.4375C297.844 56.25 296.125 51.9688 296.438 46.5938C296.625 43.9062 297.438 41.2188 298.875 38.5312C300.375 35.8438 302.312 33.4375 304.688 31.3125C307.125 29.1875 309.906 27.5 313.031 26.25C316.156 25 319.406 24.4688 322.781 24.6562C325.344 24.9062 327.75 25.375 330 26.0625C331.938 26.6875 333.844 27.5625 335.719 28.6875C337.656 29.8125 339.125 31.375 340.125 33.375ZM310.312 42.75C309.938 45.1875 310.094 47.4688 310.781 49.5938C311.531 51.7188 312.562 53.5625 313.875 55.125C315.188 56.625 316.656 57.8125 318.281 58.6875C319.906 59.5 321.438 59.875 322.875 59.8125C325.875 59.75 328.469 58.4062 330.656 55.7812C332.844 53.0938 334.156 49.0938 334.594 43.7812C334.781 41.1562 334.438 38.9062 333.562 37.0312C332.75 35.0938 331.719 33.5312 330.469 32.3438C329.219 31.1562 327.906 30.3125 326.531 29.8125C325.156 29.3125 324.062 29.0938 323.25 29.1562C322.125 29.2812 320.875 29.625 319.5 30.1875C318.188 30.6875 316.906 31.4688 315.656 32.5312C314.406 33.5312 313.281 34.875 312.281 36.5625C311.344 38.25 310.688 40.3125 310.312 42.75ZM382.594 6C384.969 6.5625 387.094 7 388.969 7.3125C390.906 7.5625 392.531 7.75 393.844 7.875C395.406 8.0625 396.781 8.125 397.969 8.0625C399.469 8 401.344 7.78125 403.594 7.40625C405.844 7.03125 408.219 6.65625 410.719 6.28125C413.219 5.90625 415.688 5.59375 418.125 5.34375C420.562 5.09375 422.688 5.0625 424.5 5.25C426.312 5.4375 428.219 5.875 430.219 6.5625C432.219 7.1875 434.094 8.0625 435.844 9.1875C437.594 10.25 439.094 11.5625 440.344 13.125C441.656 14.6875 442.469 16.5 442.781 18.5625C443.094 20.5625 442.906 22.7188 442.219 25.0312C441.531 27.2812 440.438 29.5 438.938 31.6875C437.438 33.8125 435.562 35.7812 433.312 37.5938C431.062 39.4062 428.562 40.875 425.812 42C423.625 42.8125 421.25 43.4375 418.688 43.875C416.5 44.25 413.938 44.5 411 44.625C408.125 44.6875 405.062 44.375 401.812 43.6875C401.375 45.5 401.125 47.1875 401.062 48.75C401.062 50.25 401.125 51.5938 401.25 52.7812C401.438 54.1562 401.688 55.4062 402 56.5312C402.375 57.6562 402.844 58.9688 403.406 60.4688C403.906 61.7188 404.469 63.25 405.094 65.0625C405.781 66.8125 406.594 68.7812 407.531 70.9688C406.406 70.9688 405.312 71 404.25 71.0625C403.188 71.0625 402.219 71.0938 401.344 71.1562C400.344 71.2188 399.406 71.2812 398.531 71.3438C397.531 71.4062 396.406 71.5312 395.156 71.7188C394.094 71.8438 392.75 72.0312 391.125 72.2812C389.562 72.5312 387.781 72.8438 385.781 73.2188C387.094 71.3438 388.125 69.625 388.875 68.0625C389.688 66.4375 390.281 65.0312 390.656 63.8438C391.094 62.4688 391.375 61.2188 391.5 60.0938C391.562 59.1562 391.562 57.5 391.5 55.125C391.5 52.75 391.469 50 391.406 46.875C391.344 43.75 391.25 40.4688 391.125 37.0312C391 33.5938 390.844 30.375 390.656 27.375C390.469 24.3125 390.25 21.6875 390 19.5C389.812 17.3125 389.625 15.875 389.438 15.1875C389.188 14.375 388.75 13.5 388.125 12.5625C387.625 11.75 386.906 10.8125 385.969 9.75C385.094 8.625 383.969 7.375 382.594 6ZM402 24.4688C401.938 25.0938 401.906 25.75 401.906 26.4375C401.906 27.75 402 29.4375 402.188 31.5C402.625 32.5625 403.156 33.4375 403.781 34.125C404.469 34.8125 405.188 35.3438 405.938 35.7188C406.75 36.0938 407.562 36.3438 408.375 36.4688C409.188 36.5938 410 36.6562 410.812 36.6562C412.688 36.5938 414.656 36.1562 416.719 35.3438C419.469 34.1562 421.406 32.4688 422.531 30.2812C423.656 28.0938 424.25 25.8438 424.312 23.5312C424.375 21.2188 423.969 19.0938 423.094 17.1562C422.281 15.2188 421.281 13.9062 420.094 13.2188C419.094 12.7813 417.812 12.5938 416.25 12.6562C414.875 12.7187 413.156 13.0625 411.094 13.6875C409.031 14.3125 406.5 15.4375 403.5 17.0625C403.188 18.1875 402.938 19.1875 402.75 20.0625C402.562 20.9375 402.406 21.7188 402.281 22.4062C402.156 23.1562 402.062 23.8438 402 24.4688ZM448.5 35.1562C448.812 34.7812 449 34.0938 449.062 33.0938C449.188 32.0312 449.438 30.8438 449.812 29.5312C450.25 28.2188 450.969 26.8438 451.969 25.4062C452.969 23.9688 454.594 22.625 456.844 21.375C459.031 20.125 461.156 19.375 463.219 19.125C465.281 18.875 467.25 18.9688 469.125 19.4062C471 19.8438 472.75 20.5312 474.375 21.4688C476.062 22.4062 477.594 23.4375 478.969 24.5625C479.906 25.3125 480.656 26.4062 481.219 27.8438C481.781 29.2188 482.219 30.7812 482.531 32.5312C482.844 34.2812 483.062 36.125 483.188 38.0625C483.375 39.9375 483.5 41.7812 483.562 43.5938C483.625 45.3438 483.656 46.9688 483.656 48.4688C483.719 49.9062 483.844 51.0938 484.031 52.0312C484.281 53.4062 484.719 54.5938 485.344 55.5938C485.969 56.5312 486.656 57.3438 487.406 58.0312C488.156 58.6562 488.906 59.1562 489.656 59.5312C490.406 59.9062 491.062 60.1875 491.625 60.375C492 60.5625 492.344 60.6875 492.656 60.75C493.281 61 493.719 61 493.969 60.75C493.594 61.625 493.25 62.375 492.938 63C492.625 63.625 492.375 64.1562 492.188 64.5938C491.938 65.0938 491.719 65.5 491.531 65.8125C491.344 66.1875 491.125 66.5312 490.875 66.8438C490.688 67.1562 490.438 67.5 490.125 67.875C489.812 68.25 489.5 68.6562 489.188 69.0938C488.375 68.7812 487.594 68.4062 486.844 67.9688C486.156 67.5312 485.531 67.125 484.969 66.75C484.281 66.3125 483.656 65.875 483.094 65.4375C482.531 65 482 64.5 481.5 63.9375C481.062 63.4375 480.594 62.9062 480.094 62.3438C479.656 61.7812 479.281 61.1562 478.969 60.4688C478.594 61.2812 477.688 62.4375 476.25 63.9375C474.875 65.4375 473.062 66.8125 470.812 68.0625C468.562 69.25 465.938 70.0938 462.938 70.5938C460 71.0938 456.75 70.75 453.188 69.5625C451.625 69.0625 450.156 68.3438 448.781 67.4062C447.406 66.4062 446.219 65.2188 445.219 63.8438C444.281 62.4688 443.594 60.9062 443.156 59.1562C442.781 57.3438 442.812 55.3438 443.25 53.1562C443.688 50.9688 444.469 49.125 445.594 47.625C446.719 46.125 448.062 44.9062 449.625 43.9688C451.188 43.0312 452.938 42.3125 454.875 41.8125C456.812 41.3125 458.812 40.9688 460.875 40.7812C462.5 40.7188 464.125 40.8125 465.75 41.0625C467.125 41.3125 468.562 41.7812 470.062 42.4688C471.562 43.0938 472.844 44.0625 473.906 45.375C473.844 42.0625 473.719 39.4375 473.531 37.5C473.406 35.5 473.281 33.9688 473.156 32.9062C472.906 31.6562 472.688 30.7812 472.5 30.2812C472.188 29.8438 471.844 29.3438 471.469 28.7812C471.156 28.2188 470.75 27.7188 470.25 27.2812C469.75 26.7812 469.125 26.375 468.375 26.0625C467.625 25.75 466.75 25.625 465.75 25.6875C464.688 25.75 463.844 26.0312 463.219 26.5312C462.594 27.0312 462.094 27.625 461.719 28.3125C461.406 28.9375 461.219 29.625 461.156 30.375C461.094 31.125 461.125 31.7812 461.25 32.3438C461.375 32.7188 461.562 33.125 461.812 33.5625C462.062 33.9375 462.406 34.3438 462.844 34.7812C463.281 35.2188 463.875 35.5938 464.625 35.9062C463.188 36.0938 461.906 36.25 460.781 36.375C459.656 36.4375 458.688 36.5312 457.875 36.6562C456.938 36.7812 456.125 36.875 455.438 36.9375C454.75 37 453.938 37.125 453 37.3125C452.188 37.4375 451.188 37.5938 450 37.7812C448.812 37.9688 447.438 38.2188 445.875 38.5312C446.25 38.0938 446.594 37.6875 446.906 37.3125C447.219 36.875 447.5 36.5 447.75 36.1875C448 35.8125 448.25 35.4688 448.5 35.1562ZM462.562 46.3125C461.438 46.375 460.312 46.6562 459.188 47.1562C458.062 47.5938 457.062 48.25 456.188 49.125C455.312 49.9375 454.562 50.9062 453.938 52.0312C453.375 53.0938 453.094 54.2812 453.094 55.5938C453.094 56.9062 453.406 58.0625 454.031 59.0625C454.719 60 455.594 60.7812 456.656 61.4062C457.781 62.0312 458.969 62.4062 460.219 62.5312C461.531 62.6562 462.812 62.5312 464.062 62.1562C465.25 61.7188 466.375 61.0312 467.438 60.0938C468.5 59.0938 469.406 58.0312 470.156 56.9062C470.906 55.7188 471.438 54.5625 471.75 53.4375C472.062 52.25 472.094 51.2812 471.844 50.5312C471.344 48.9062 470.219 47.7812 468.469 47.1562C466.719 46.4688 464.75 46.1875 462.562 46.3125ZM537.281 33.375C537.094 32.125 536.938 31.0938 536.812 30.2812C536.688 29.4062 536.562 28.7188 536.438 28.2188C536.312 27.5938 536.219 27.125 536.156 26.8125C536.031 26.5 535.875 26.1562 535.688 25.7812C535.562 25.4688 535.344 25.0938 535.031 24.6562C534.781 24.2188 534.469 23.7188 534.094 23.1562C534.906 23.4062 535.719 23.5625 536.531 23.625C537.406 23.6875 538.219 23.75 538.969 23.8125C539.781 23.875 540.625 23.875 541.5 23.8125C542.375 23.8125 543.375 23.7812 544.5 23.7188C545.5 23.6562 546.688 23.625 548.062 23.625C549.5 23.5625 551.125 23.4688 552.938 23.3438C551.875 23.5938 550.969 24.0312 550.219 24.6562C549.531 25.2188 548.938 25.8438 548.438 26.5312C547.875 27.2812 547.406 28.0938 547.031 28.9688C546.719 29.7812 546.531 31.3438 546.469 33.6562C546.406 35.9062 546.406 38.5938 546.469 41.7188C546.531 44.7812 546.594 48.0938 546.656 51.6562C546.781 55.2188 546.844 58.625 546.844 61.875C546.906 65.125 546.906 68.0938 546.844 70.7812C546.781 73.4062 546.625 75.3438 546.375 76.5938C545.5 80.5312 543.875 83.7188 541.5 86.1562C539.125 88.6562 536 90 532.125 90.1875C527.438 90.375 523.719 89.9375 520.969 88.875C518.281 87.8125 516.188 86.5 514.688 84.9375C513.188 83.4375 512.062 81.9062 511.312 80.3438C510.562 78.7812 509.781 77.5938 508.969 76.7812C508.219 76.0938 507.469 75.4375 506.719 74.8125C506.031 74.3125 505.312 73.8125 504.562 73.3125C503.875 72.8125 503.188 72.5 502.5 72.375C504.312 72.4375 505.938 72.4688 507.375 72.4688C508.812 72.4688 510.031 72.4688 511.031 72.4688C512.156 72.4688 513.156 72.4375 514.031 72.375H517.031H525.562C524.312 72.75 523.375 73.1562 522.75 73.5938C522.125 74.0938 521.688 74.5938 521.438 75.0938C521.188 75.6562 521.062 76.2188 521.062 76.7812C521.312 78.2812 522.125 79.375 523.5 80.0625C524.875 80.75 526.75 81.1562 529.125 81.2812C531.438 81.4062 533.031 81.3438 533.906 81.0938C534.781 80.9062 535.469 80.5312 535.969 79.9688C536.969 78.4688 537.812 76.5312 538.5 74.1562C539 72.1562 539.344 69.5625 539.531 66.375C539.781 63.125 539.5 59.1562 538.688 54.4688C536.688 57.2188 534.375 59.2812 531.75 60.6562C529.125 62.0312 526.625 63.0312 524.25 63.6562C521.438 64.3438 518.594 64.6875 515.719 64.6875C508.156 64.375 502.5 62.625 498.75 59.4375C495 56.25 493.281 51.9688 493.594 46.5938C493.781 43.9062 494.594 41.2188 496.031 38.5312C497.531 35.8438 499.469 33.4375 501.844 31.3125C504.281 29.1875 507.062 27.5 510.188 26.25C513.312 25 516.562 24.4688 519.938 24.6562C522.5 24.9062 524.906 25.375 527.156 26.0625C529.094 26.6875 531 27.5625 532.875 28.6875C534.812 29.8125 536.281 31.375 537.281 33.375ZM507.469 42.75C507.094 45.1875 507.25 47.4688 507.938 49.5938C508.688 51.7188 509.719 53.5625 511.031 55.125C512.344 56.625 513.812 57.8125 515.438 58.6875C517.062 59.5 518.594 59.875 520.031 59.8125C523.031 59.75 525.625 58.4062 527.812 55.7812C530 53.0938 531.312 49.0938 531.75 43.7812C531.938 41.1562 531.594 38.9062 530.719 37.0312C529.906 35.0938 528.875 33.5312 527.625 32.3438C526.375 31.1562 525.062 30.3125 523.688 29.8125C522.312 29.3125 521.219 29.0938 520.406 29.1562C519.281 29.2812 518.031 29.625 516.656 30.1875C515.344 30.6875 514.062 31.4688 512.812 32.5312C511.562 33.5312 510.438 34.875 509.438 36.5625C508.5 38.25 507.844 40.3125 507.469 42.75ZM578.156 58.0312C579.906 58.0312 581.531 57.8438 583.031 57.4688C584.281 57.1562 585.469 56.6562 586.594 55.9688C587.781 55.2188 588.562 54.125 588.938 52.6875C590.188 52.9375 591.25 53.1562 592.125 53.3438C593 53.4688 593.75 53.5938 594.375 53.7188C595.062 53.9062 595.656 54.0312 596.156 54.0938C596.656 54.2188 597.25 54.3438 597.938 54.4688C598.562 54.5938 599.312 54.75 600.188 54.9375C601.125 55.0625 602.219 55.25 603.469 55.5C602.531 55.375 601.562 55.4688 600.562 55.7812C599.625 56.0938 598.719 56.4375 597.844 56.8125C596.844 57.25 595.906 57.7812 595.031 58.4062C594.469 58.7812 593.812 59.3438 593.062 60.0938C592.375 60.8438 591.375 61.5625 590.062 62.25C588.75 62.9375 587 63.5312 584.812 64.0312C582.688 64.4688 579.938 64.625 576.562 64.5C572.5 64.375 569.094 63.6562 566.344 62.3438C563.594 60.9688 561.375 59.3125 559.688 57.375C558 55.375 556.781 53.2188 556.031 50.9062C555.281 48.5938 554.875 46.4375 554.812 44.4375C554.75 42.4375 555.344 40.3438 556.594 38.1562C557.844 35.9688 559.594 33.9688 561.844 32.1562C564.156 30.3438 566.938 28.875 570.188 27.75C573.438 26.5625 577 25.9688 580.875 25.9688C583.125 25.9688 585.188 26.25 587.062 26.8125C589 27.3125 590.75 28 592.312 28.875C593.938 29.75 595.344 30.75 596.531 31.875C597.719 32.9375 598.719 34.0312 599.531 35.1562C600.344 36.3438 601.031 37.5938 601.594 38.9062C602.094 40.0312 602.5 41.3125 602.812 42.75C603.125 44.1875 603.219 45.6562 603.094 47.1562C598.344 47.2812 594.5 47.375 591.562 47.4375C588.688 47.5 586.438 47.5312 584.812 47.5312H580.594H577.406C576.281 47.5312 574.812 47.5625 573 47.625C571.188 47.6875 568.969 47.7812 566.344 47.9062C566.656 50.4062 567.438 52.3438 568.688 53.7188C570 55.0312 571.375 56.0312 572.812 56.7188C574.438 57.4688 576.219 57.9062 578.156 58.0312ZM569.719 41.1562C571.719 41.2812 573.375 41.375 574.688 41.4375C576.062 41.5 577.188 41.5625 578.062 41.625C579 41.6875 579.75 41.7188 580.312 41.7188H582.656C584.219 41.7188 587.125 41.625 591.375 41.4375C591.188 38.6875 590.594 36.5938 589.594 35.1562C588.656 33.7188 587.656 32.6562 586.594 31.9688C585.344 31.2188 583.969 30.7812 582.469 30.6562C578.406 30.7188 575.375 31.5625 573.375 33.1875C571.438 34.8125 570.219 37.4688 569.719 41.1562Z" fill="white"/>
</svg>
